<svg width="3300" height="1315" xmlns="http://www.w3.org/2000/svg" xmlns:xlink="http://www.w3.org/1999/xlink" overflow="hidden"><defs><clipPath id="clip0"><rect x="49" y="599" width="3300" height="1315"/></clipPath><clipPath id="clip1"><rect x="2481" y="599" width="863" height="861"/></clipPath><clipPath id="clip2"><rect x="2481" y="599" width="863" height="861"/></clipPath><clipPath id="clip3"><rect x="2481" y="599" width="863" height="861"/></clipPath></defs><g clip-path="url(#clip0)" transform="translate(-49 -599)"><text font-family="Arial Black,Arial Black_MSFontService,sans-serif" font-weight="900" font-size="275" transform="matrix(1 0 0 1 841.347 1251)">PHONAVOX<tspan font-family="Calibri,Calibri_MSFontService,sans-serif" font-weight="700" font-size="110" x="470.334" y="172">conseil, expertise et formation</tspan><tspan font-family="Calibri,Calibri_MSFontService,sans-serif" font-weight="400" font-size="110" x="1887.75" y="172">dans les </tspan><tspan font-family="Calibri,Calibri_MSFontService,sans-serif" font-weight="400" font-size="110" x="471.48" y="291">domaines de la </tspan><tspan fill="#92D050" font-family="Calibri,Calibri_MSFontService,sans-serif" font-weight="700" font-size="110" x="1173.3" y="291">prononciation</tspan><tspan font-family="Calibri,Calibri_MSFontService,sans-serif" font-weight="400" font-size="110" x="1840.09" y="291">et la </tspan><tspan fill="#C00000" font-family="Calibri,Calibri_MSFontService,sans-serif" font-weight="700" font-size="110" x="2058.34" y="291">voix</tspan></text><g clip-path="url(#clip1)"><g clip-path="url(#clip2)"><g clip-path="url(#clip3)"><path d="M650.234 565.928C635.884 551.578 614.359 544.403 594.628 548.887L554.269 509.425C590.144 462.787 609.875 405.387 609.875 346.194 610.772 196.416 489.694 75.3375 340.812 74.4406 191.931 73.5437 70.8531 194.622 69.9562 343.503 69.0593 492.384 190.137 613.462 339.019 614.359 398.212 614.359 456.509 594.628 504.044 558.753L543.506 598.215C539.919 618.844 546.197 639.472 560.547 654.719L672.656 766.828C696.872 791.043 737.231 791.043 761.447 766.828 785.662 742.612 785.662 702.253 761.447 678.037L650.234 565.928ZM340.812 560.547C221.528 560.547 125.562 464.581 125.562 345.297 125.562 226.012 221.528 130.047 340.812 130.047 460.097 130.047 556.062 226.012 556.062 345.297 556.062 463.684 459.2 560.547 340.812 560.547Z" fill="#000000" fill-opacity="0.31" transform="matrix(1.00116 0 0 1 2482 599)"/><path d="M533.64 331.844 482.519 331.844C478.034 332.741 473.55 335.431 470.859 339.019L436.778 375.791 408.078 276.237C405.387 268.166 396.419 262.784 388.347 265.475 383.862 267.269 379.378 269.959 377.584 275.341L323.772 417.944 287 220.631C285.206 211.662 277.134 206.281 269.062 208.075 263.681 208.972 259.197 213.456 256.506 218.837L217.941 331.844 147.984 331.844 147.984 367.719 229.6 367.719C236.775 366.822 243.053 361.44 244.847 354.266L267.269 286.103 303.144 478.931C304.041 486.106 310.319 491.487 317.494 491.487L319.287 491.487C325.566 491.487 331.844 487.9 334.534 481.622L391.934 330.947 415.253 411.665C417.944 419.737 426.016 425.119 434.984 422.428 437.675 421.531 440.365 419.737 442.159 417.944L490.59 367.719 534.537 367.719 534.537 331.844Z" fill="#000000" fill-opacity="0.31" transform="matrix(1.00116 0 0 1 2482 599)"/></g></g></g></g></svg>